<svg width="39" height="39" viewBox="0 0 39 39" fill="none" xmlns="http://www.w3.org/2000/svg">
<path d="M19.5 1C9.34314 1 1 9.34314 1 19.5C1 29.6569 9.34314 38 19.5 38C29.6569 38 38 29.6569 38 19.5C38 9.34314 29.7778 1 19.5 1Z" stroke="white" stroke-miterlimit="10" stroke-linecap="round" stroke-linejoin="round"/>
<path d="M17.8074 29.1732C17.2028 29.1732 16.7191 28.9313 16.2355 28.5686L10.5525 23.6111C9.58516 22.7647 9.46424 21.1928 10.3106 20.2254C11.1571 19.2581 12.7289 19.1372 13.6963 19.9836L17.4446 23.2483L24.9414 13.696C25.7878 12.6078 27.2388 12.4869 28.327 13.3333C29.4152 14.1797 29.5361 15.6307 28.6897 16.7189L19.6211 28.3267C19.2584 28.8104 18.6538 29.1732 17.9283 29.2941C17.9283 29.1732 17.9283 29.1732 17.8074 29.1732Z" stroke="white" stroke-miterlimit="10" stroke-linecap="round" stroke-linejoin="round"/>
</svg>
