<svg width="87" height="87" viewBox="0 0 87 87" fill="none" xmlns="http://www.w3.org/2000/svg">
<rect width="87" height="87" fill="#4D4A49"/>
<path d="M63.2319 35.1311C63.2942 34.635 63.2942 34.635 63.2941 34.635L63.294 34.635L63.2937 34.635L63.2929 34.6349L63.2906 34.6346L63.2829 34.6337L63.2553 34.6305C63.2316 34.6278 63.1974 34.6241 63.1531 34.6197C63.0646 34.611 62.9359 34.5995 62.7711 34.5881C62.4418 34.5652 61.9679 34.5426 61.3828 34.5426C58.9399 34.5426 54.3688 34.9373 51.1836 37.8608C48.892 39.9555 47.8267 42.9198 47.3278 45.31C47.0769 46.5115 46.9657 47.5845 46.9171 48.3578C46.8928 48.7447 46.8841 49.0576 46.8815 49.2751C46.8802 49.3839 46.8805 49.4689 46.8811 49.5275C46.8812 49.5456 46.8815 49.5611 46.8817 49.5741C46.8818 49.5821 46.8819 49.5892 46.8821 49.5952L46.8825 49.6136L46.8826 49.6188L46.8826 49.6204L46.8827 49.621C46.8827 49.6212 46.8827 49.6214 47.3824 49.6065M63.2319 35.1311C63.7316 35.1163 63.7316 35.1164 63.7317 35.1166L63.7317 35.1172L63.7317 35.1188L63.7318 35.124L63.7323 35.1424C63.7326 35.1582 63.733 35.1809 63.7332 35.2102C63.7338 35.2687 63.7341 35.3537 63.7328 35.4625C63.7302 35.68 63.7215 35.9929 63.6972 36.3798C63.6486 37.1531 63.5374 38.2261 63.2866 39.4276C62.7876 41.8176 61.7225 44.7816 59.4314 46.8763C57.4862 48.6686 55.0168 49.5142 52.8466 49.8996C50.6878 50.2829 48.7831 50.2186 47.8911 50.1507C47.7034 50.1499 47.5571 50.1379 47.4522 50.1247C47.3979 50.1179 47.3548 50.1108 47.3228 50.1047C47.3069 50.1017 47.2937 50.099 47.2833 50.0967L47.2698 50.0936L47.2647 50.0924L47.2625 50.0919L47.2615 50.0916L47.261 50.0915L47.2608 50.0914C47.2607 50.0914 47.2605 50.0914 47.3824 49.6065M63.2319 35.1311L63.7316 35.1163L63.7189 34.6884L63.2942 34.635L63.2319 35.1311ZM47.3824 49.6065L46.8827 49.6214L46.8939 49.9992L47.2605 50.0914L47.3824 49.6065ZM39.6169 49.6065C40.1167 49.6214 40.1167 49.6212 40.1167 49.621L40.1167 49.6204L40.1167 49.6188L40.1169 49.6136L40.1173 49.5952C40.1176 49.5794 40.118 49.5567 40.1183 49.5275C40.1189 49.4689 40.1191 49.3839 40.1178 49.2751C40.1152 49.0576 40.1065 48.7447 40.0822 48.3578C40.0336 47.5845 39.9224 46.5115 39.6716 45.31C39.1726 42.9199 38.1075 39.9558 35.8162 37.8611C32.631 34.9373 28.0595 34.5426 25.6166 34.5426C25.0314 34.5426 24.5576 34.5652 24.2282 34.5881C24.0635 34.5995 23.9348 34.611 23.8462 34.6197C23.802 34.6241 23.7677 34.6278 23.744 34.6305L23.7165 34.6337L23.7088 34.6346L23.7064 34.6349L23.7056 34.635L23.7054 34.635L23.7052 34.635C23.7052 34.635 23.7051 34.635 23.7675 35.1311M39.6169 49.6065C39.7388 50.0914 39.7387 50.0914 39.7386 50.0914L39.7383 50.0915L39.7379 50.0916L39.7369 50.0919L39.7347 50.0924L39.7295 50.0936L39.7161 50.0967C39.7057 50.099 39.6925 50.1017 39.6765 50.1047C39.6446 50.1108 39.6014 50.1179 39.5472 50.1247C39.4422 50.1379 39.2959 50.1499 39.1083 50.1507C38.2162 50.2186 36.3116 50.2829 34.1528 49.8996C31.9825 49.5142 29.513 48.6686 27.5678 46.8761C25.2768 44.7815 24.2117 41.8175 23.7128 39.4276C23.4619 38.2261 23.3508 37.1531 23.3022 36.3798C23.2779 35.9929 23.2692 35.68 23.2666 35.4625C23.2653 35.3537 23.2655 35.2687 23.2661 35.2102C23.2664 35.1809 23.2668 35.1582 23.2671 35.1424L23.2675 35.124L23.2676 35.1188L23.2677 35.1172L23.2677 35.1166C23.2677 35.1164 23.2677 35.1163 23.7675 35.1311M39.6169 49.6065L39.7388 50.0914L40.1054 49.9992L40.1167 49.6214L39.6169 49.6065ZM23.7675 35.1311L23.7051 34.635L23.2804 34.6884L23.2677 35.1163L23.7675 35.1311Z" fill="#E2C275" stroke="#E2C275"/>
<path d="M47.3824 66.5213C46.8827 66.5361 46.8827 66.536 46.8827 66.5358L46.8826 66.5352L46.8826 66.5336L46.8825 66.5284L46.882 66.51C46.8817 66.4942 46.8814 66.4715 46.8811 66.4422C46.8805 66.3837 46.8802 66.2987 46.8815 66.1899C46.8841 65.9724 46.8928 65.6595 46.9171 65.2726C46.9657 64.4993 47.0769 63.4263 47.3278 62.2248C47.8267 59.8346 48.892 56.8702 51.1836 54.7756C54.3688 51.8521 58.9399 51.4574 61.3828 51.4574C61.9679 51.4574 62.4418 51.48 62.7711 51.5029C62.9359 51.5143 63.0646 51.5258 63.1531 51.5345C63.1974 51.5389 63.2316 51.5426 63.2553 51.5453L63.2829 51.5485L63.2906 51.5494L63.2929 51.5497L63.2937 51.5498L63.294 51.5498L63.2941 51.5498C63.2942 51.5498 63.2942 51.5498 63.2319 52.0459M47.3824 66.5213C47.2605 67.0062 47.2607 67.0062 47.2608 67.0062L47.261 67.0063L47.2615 67.0064L47.2625 67.0067L47.2647 67.0072L47.2698 67.0084L47.2833 67.0115C47.2937 67.0138 47.3068 67.0165 47.3228 67.0195C47.3548 67.0256 47.3979 67.0327 47.4522 67.0395C47.5571 67.0527 47.7034 67.0647 47.8911 67.0655C48.7831 67.1333 50.6878 67.1977 52.8466 66.8144C55.0168 66.429 57.4862 65.5834 59.4314 63.7911C61.7225 61.6964 62.7876 58.7324 63.2865 56.3424C63.5374 55.1409 63.6486 54.0679 63.6972 53.2946C63.7215 52.9077 63.7302 52.5948 63.7328 52.3773C63.7341 52.2685 63.7338 52.1835 63.7332 52.125C63.733 52.0957 63.7326 52.073 63.7323 52.0572L63.7318 52.0388L63.7317 52.0336L63.7317 52.032L63.7317 52.0314C63.7316 52.0312 63.7316 52.031 63.2319 52.0459M47.3824 66.5213L46.8827 66.5361L46.8939 66.914L47.2605 67.0062L47.3824 66.5213ZM63.2319 52.0459L63.7316 52.031L63.7189 51.6032L63.2942 51.5498L63.2319 52.0459ZM39.6169 66.5213C40.1167 66.5361 40.1167 66.536 40.1167 66.5358L40.1167 66.5352L40.1167 66.5336L40.1169 66.5284L40.1173 66.51C40.1176 66.4942 40.118 66.4715 40.1183 66.4422C40.1189 66.3837 40.1191 66.2987 40.1178 66.1899C40.1152 65.9724 40.1065 65.6595 40.0822 65.2726C40.0336 64.4993 39.9224 63.4263 39.6716 62.2248C39.1726 59.8347 38.1075 56.8706 35.8162 54.7759C32.631 51.8521 28.0595 51.4574 25.6166 51.4574C25.0314 51.4574 24.5576 51.48 24.2282 51.5029C24.0635 51.5143 23.9348 51.5258 23.8462 51.5345C23.802 51.5389 23.7677 51.5426 23.744 51.5453L23.7165 51.5485L23.7088 51.5494L23.7064 51.5497L23.7056 51.5498L23.7054 51.5498L23.7052 51.5498C23.7052 51.5498 23.7051 51.5498 23.7675 52.0459M39.6169 66.5213C39.7388 67.0062 39.7387 67.0062 39.7386 67.0062L39.7383 67.0063L39.7379 67.0064L39.7369 67.0067L39.7347 67.0072L39.7295 67.0084L39.7161 67.0115C39.7057 67.0138 39.6925 67.0165 39.6765 67.0195C39.6446 67.0256 39.6014 67.0327 39.5472 67.0395C39.4422 67.0527 39.2959 67.0647 39.1083 67.0655C38.2162 67.1333 36.3116 67.1977 34.1528 66.8144C31.9825 66.4289 29.513 65.5834 27.5678 63.7909C25.2768 61.6963 24.2117 58.7323 23.7128 56.3424C23.4619 55.1409 23.3508 54.0679 23.3022 53.2946C23.2779 52.9077 23.2692 52.5948 23.2666 52.3773C23.2653 52.2685 23.2655 52.1835 23.2661 52.125C23.2664 52.0957 23.2668 52.073 23.2671 52.0572L23.2675 52.0388L23.2676 52.0336L23.2677 52.032L23.2677 52.0314C23.2677 52.0312 23.2677 52.031 23.7675 52.0459M39.6169 66.5213L39.7388 67.0062L40.1054 66.914L40.1167 66.5361L39.6169 66.5213ZM23.7675 52.0459L23.7051 51.5498L23.2804 51.6032L23.2677 52.031L23.7675 52.0459Z" fill="#E2C275" stroke="#E2C275"/>
<path d="M43.2611 37.1664L43.5 37.2964L43.7389 37.1664C47.5885 35.0724 50.2021 31.0216 50.2021 26.3636C50.2021 21.7057 47.5885 17.6548 43.7389 15.5608L43.5 15.4308L43.2611 15.5608C39.4115 17.6548 36.7979 21.7057 36.7979 26.3636C36.7979 31.0216 39.4115 35.0724 43.2611 37.1664Z" fill="#E2C275" stroke="#E2C275"/>
</svg>
